<svg fill="none" height="16" viewBox="0 0 16 16" width="16" xmlns="http://www.w3.org/2000/svg" id="fi_12690013">
  <g clip-rule="evenodd" fill="#000" fill-rule="evenodd">
    <path d="m2 5.31818c0-1.28077 1.03803-2.31818 2.31818-2.31818h2.02818c.27615 0 .5.22386.5.5s-.22385.5-.5.5h-2.02818c-.72803 0-1.31818.58986-1.31818 1.31818v6.36362c0 .7283.59015 1.3182 1.31818 1.3182h6.36362c.728 0 1.3182-.5899 1.3182-1.3182v-2.02725c0-.27615.2239-.5.5-.5s.5.22385.5.5v2.02725c0 1.2808-1.038 2.3182-2.3182 2.3182h-6.36362c-1.28015 0-2.31818-1.0374-2.31818-2.3182z"/>
    <path d="m9 2.5c0-.27614.22386-.5.5-.5h4c.2761 0 .5.22386.5.5v4c0 .27614-.2239.5-.5.5s-.5-.22386-.5-.5v-3.5h-3.5c-.27614 0-.5-.22386-.5-.5z"/>
    <path d="m13.4891 2.52702c.195.19558.1945.51216-.0011.70711l-4.63502 4.62c-.19558.19494-.51216.19443-.70711-.00115-.19494-.19558-.19443-.51216.00115-.70711l4.63498-4.62c.1956-.19494.5122-.19443.7071.00115z"/>
  </g>
</svg>