<svg viewBox="0 0 48 48" xmlns="http://www.w3.org/2000/svg" data-name="Layer 1">
    <path d="m31.498 14.73c-.536-.134-.862-.677-.728-1.212.153-.611.23-1.29.23-2.018 0-5.238-4.262-9.5-9.5-9.5s-9.5 4.262-9.5 9.5c0 2.503.963 4.861 2.713 6.638.387.394.382 1.027-.011 1.415-.195.191-.448.287-.702.287-.258 0-.517-.1-.713-.298-2.12-2.154-3.287-5.01-3.287-8.042 0-6.341 5.159-11.5 11.5-11.5s11.5 5.159 11.5 11.5c0 .891-.098 1.732-.29 2.502-.134.537-.683.865-1.212.728z"/>
    <path d="m14 11.5c0-4.136 3.364-7.5 7.5-7.5s7.5 3.364 7.5 7.5c0 .552-.448 1-1 1s-1-.448-1-1c0-3.033-2.467-5.5-5.5-5.5s-5.5 2.467-5.5 5.5c0 .552-.448 1-1 1s-1-.448-1-1z"/>
    <path d="m8.469 29.408 4.234 6.796c1.021 1.639 2.303 3.081 3.809 4.287l2.112 1.689c.238.19.375.476.375.78v2.039c0 1.654 1.346 3 3 3h11c1.654 0 3-1.346 3-3v-2.325c0-.431.09-.848.268-1.239l2.442-5.383c.843-1.846 1.29-3.898 1.29-5.933 0-.021 0-.04-.002-.06.001-.021.002-.04.002-.061v-7.75c0-1.93-1.57-3.5-3.5-3.5-.756 0-1.457.241-2.03.65-.619-.99-1.719-1.65-2.97-1.65-.756 0-1.457.241-2.03.65-.619-.99-1.719-1.65-2.97-1.65-.537 0-1.045.122-1.5.338v-5.588c0-1.93-1.57-3.5-3.5-3.5s-3.5 1.57-3.5 3.5v18.793s-3.633-4.247-3.633-4.247c-1.181-1.35-3.114-1.73-4.709-.933-.759.38-1.324 1.066-1.55 1.884s-.095 1.695.36 2.411zm1.567-1.878c.077-.276.26-.5.517-.628.779-.391 1.726-.203 2.301.452l5.385 6.296c.272.317.714.43 1.106.288.393-.146.653-.52.653-.938v-21.5c0-.827.673-1.5 1.5-1.5s1.5.673 1.5 1.5v14.5c0 .553.448 1 1 1s1-.447 1-1v-5.75c0-.827.673-1.5 1.5-1.5s1.5.673 1.5 1.5v5.75c0 .553.448 1 1 1s1-.447 1-1v-4.75c0-.827.673-1.5 1.5-1.5s1.5.673 1.5 1.5v4.75c0 .553.448 1 1 1s1-.447 1-1v-3.75c0-.827.673-1.5 1.5-1.5s1.5.673 1.5 1.5v7.75c0 .021 0 .04.002.061-.001.02-.002.039-.002.06 0 1.75-.384 3.515-1.11 5.104l-2.443 5.385c-.296.653-.447 1.348-.447 2.065v2.325c0 .552-.449 1-1 1h-11c-.551 0-1-.448-1-1v-2.039c0-.915-.41-1.769-1.125-2.342l-2.113-1.69c-1.329-1.063-2.46-2.336-3.361-3.782l-4.239-6.804c-.159-.25-.202-.536-.125-.813z"/>
</svg>