<svg id="fi_4865214" enable-background="new 0 0 612 612" height="512" viewBox="0 0 612 612" width="512" xmlns="http://www.w3.org/2000/svg">
    <g>
        <path clip-rule="evenodd" d="m0 225.05v161.9c0 29.89 24.173 54.05 54.031 54.05h503.937c29.824 0 54.032-24.208 54.032-54.05v-161.9c0-29.89-24.174-54.05-54.031-54.05h-503.938c-29.823 0-54.031 24.208-54.031 54.05zm414-18.05h143.969c9.98 0 18.031 8.047 18.031 18.05v161.9c0 9.959-8.09 18.05-18.031 18.05h-143.969zm-378 18.05c0-9.96 8.09-18.05 18.031-18.05h323.969v198h-323.969c-9.98 0-18.031-8.047-18.031-18.05zm54 98.95h162.204c9.941 0 18-8.059 18-18s-8.059-18-18-18h-162.204c-9.941 0-18 8.059-18 18s8.059 18 18 18zm390.728-3.728c-7.029-7.029-18.426-7.029-25.456 0-7.029 7.029-7.029 18.426 0 25.456l27 27c7.029 7.029 18.426 7.029 25.456 0l27-27c7.029-7.029 7.029-18.426 0-25.456-7.029-7.029-18.426-7.029-25.456 0l-14.272 14.272zm14.272-42.816 14.272 14.272c7.029 7.029 18.426 7.029 25.456 0 7.029-7.029 7.029-18.426 0-25.456l-27-27c-7.029-7.029-18.426-7.029-25.456 0l-27 27c-7.029 7.029-7.029 18.426 0 25.456 7.029 7.029 18.426 7.029 25.456 0z" fill-rule="evenodd"/>
    </g>
</svg>