<?xml version="1.0" encoding="utf-8" ?>
<svg xmlns="http://www.w3.org/2000/svg" xmlns:xlink="http://www.w3.org/1999/xlink" width="500" height="400">
    <path fill="#FEFEFE" d="M0 0L499.562 0C500.187 1.09289 499.999 2.50193 500 3.73047L500.004 316.043L500 379.01C500 381.762 500.369 397.896 499.844 399.446C499.772 399.659 499.676 399.801 499.562 400L0 400L0 0Z"/>
    <path fill="#34373D" d="M352.285 247.546C356.604 247.434 360.948 247.515 365.27 247.507C365.204 251.21 365.247 254.921 365.237 258.625L365.258 274.544C365.263 283.539 366.194 294.803 359.339 301.746C354.285 306.866 347.015 308.408 340.068 308.478C332.975 308.55 325.678 307.052 320.494 301.872C317.828 299.208 316.287 296.063 315.424 292.421C313.931 286.123 314.505 278.995 314.506 272.543L314.521 247.496L327.491 247.517L327.469 273.906C327.468 278.814 326.935 284.586 327.965 289.377C328.365 291.239 329.488 293.521 330.826 294.886C332.918 297.019 336.849 297.508 339.682 297.533C342.921 297.56 346.832 297.019 349.205 294.578C350.687 293.053 351.434 290.938 351.792 288.879C352.692 283.703 352.284 278.006 352.285 272.757L352.285 247.546Z"/>
    <path fill="#34373D" d="M121.841 246.358C127.573 245.825 133.742 247.444 138.566 250.547C145.013 254.695 147.365 260.303 148.953 267.484L135.962 267.485L135.926 267.245C135.906 267.112 135.882 266.979 135.865 266.845C135.72 265.654 135.498 264.865 134.905 263.824C133.123 260.694 130.156 258.751 126.715 257.827C122.643 256.733 118.503 257.385 114.878 259.515C111.159 261.699 108.954 266.16 107.924 270.197C106.295 276.576 106.816 284.812 110.24 290.494C112.356 294.005 115.523 296.24 119.515 297.167C122.958 297.967 127.02 297.779 130.079 295.862C134.05 293.373 135.731 289.137 136.688 284.757L136.627 284.451C137.441 283.842 147.671 284.294 149.407 284.307C148.685 289.899 147.212 294.918 143.606 299.379C139.47 304.493 133.427 307.598 126.898 308.258C118.664 309.09 110.886 307.336 104.44 302.006C98.5114 297.105 95.0816 289.459 94.3688 281.895C93.4988 272.663 95.288 263.037 101.39 255.802C106.895 249.274 113.589 247.015 121.841 246.358Z"/>
    <path fill="#34373D" d="M214.968 263.107C219.458 262.823 225.003 263.016 229.106 264.917C231.764 266.148 234.013 268.297 235.026 271.08C236.086 273.994 235.778 277.323 235.757 280.371C235.707 287.717 234.793 300.384 237.249 306.955C237.279 307.034 237.311 307.112 237.342 307.19C233.347 307.315 229.329 307.235 225.331 307.239C225.13 306.124 225.17 304.067 224.597 303.18C222.837 303.63 221.279 305.462 219.614 306.301C215.191 308.53 208.179 308.943 203.522 307.288C200.014 306.042 197.851 303.842 196.269 300.535C196.236 300.453 196.202 300.372 196.17 300.29C194.976 297.217 195.043 292.596 196.405 289.586C200.352 280.859 214.222 283.192 220.889 280.415C222.096 279.912 223.238 279.118 223.73 277.858C224.21 276.63 224.06 274.867 223.473 273.697C222.865 272.486 221.644 271.869 220.422 271.433C216.807 270.146 213.649 270.888 210.285 272.496C209.385 273.977 208.798 275.555 208.42 277.243L196.616 277.213C197.212 274.063 197.756 271.363 199.955 268.886C203.87 264.475 209.353 263.455 214.968 263.107Z"/>
    <path fill="#FEFEFE" d="M223.578 286.277L223.772 286.308C224.499 287.574 224.041 291.052 223.804 292.532C223.384 295.149 222.271 297.28 220.062 298.815C216.435 301.335 213.227 300.113 209.282 299.447C208.542 298.661 207.919 297.774 207.273 296.911C207.146 295.421 207.343 293.903 207.472 292.417C212.305 287.07 217.647 289.033 223.578 286.277Z"/>
    <path fill="#46C79B" d="M243.099 100.997C243.735 101.045 244.443 101.131 245.037 101.367C249.044 102.955 250.351 108.818 253.674 111.336C255.066 112.391 258.426 114.099 258.941 115.801C259.117 116.382 258.997 116.626 258.691 117.114C257.765 117.573 256.75 117.518 255.736 117.556L255.725 130.103C257.017 130.362 258.328 130.551 259.629 130.762C258.844 133.14 257.312 135.266 255.975 137.363C255.919 139.802 256.231 142.317 256.337 144.765C251.21 147.709 244.666 149.934 239.154 152.255C236.027 153.599 232.783 155.229 229.459 155.999C229.485 152.87 229.991 149.67 230.31 146.555C230.624 143.485 230.777 140.363 231.338 137.328C230.517 135.808 228.689 134.072 228.295 132.438C228.123 131.729 228.249 131.446 228.58 130.82C229.035 130.486 229.357 130.242 229.952 130.243C230.373 130.241 230.794 130.246 231.215 130.258C232.109 129.048 231.519 119.663 231.53 117.513C230.559 117.539 229.727 117.597 228.797 117.259C228.266 116.727 228.25 116.749 228.192 116.005C229.163 113.668 232.76 111.992 234.592 110.221C237.819 107.1 238.607 102.867 243.099 100.997Z"/>
    <path fill="#FEFEFE" d="M236.982 117.49L250.317 117.482C250.12 121.709 250.263 126.023 250.254 130.259L236.98 130.25L236.982 117.49Z"/>
    <path fill="#34373D" d="M266.449 247.636C268.036 247.749 270.417 247.222 271.6 248.522C272.669 249.698 271.966 255.027 271.961 256.795C269.559 256.49 267.514 256.48 265.112 256.851L263.584 258.173C263.331 260.148 263.228 262.031 263.23 264.019L271.257 264.043L271.243 271.951L263.256 271.994L263.225 307.208L258.33 307.243L251.275 307.265L251.272 271.993L244.275 271.98L244.281 264.027L251.241 264.029C251.301 259.71 251.449 255.132 254.572 251.795C257.73 248.421 262.071 247.78 266.449 247.636Z"/>
    <path fill="#34373D" d="M283.516 251.023L295.259 251.063L295.249 264.026L303.986 264.034L303.97 271.96L295.257 271.991C295.197 278.357 295.154 284.741 295.225 291.107C295.242 292.564 295.113 296.323 296.313 297.34C298.085 298.842 301.871 298.248 303.971 297.971L303.973 306.312C303.951 306.583 304.017 306.83 303.782 307.012C302.887 307.706 300.309 307.56 299.224 307.57C294.847 307.608 288.917 307.605 285.638 304.195C284.523 303.037 283.973 301.191 283.723 299.635C283.218 296.492 283.517 292.96 283.516 289.773L283.515 271.985L276.269 271.978L276.286 264.019L283.516 264.014L283.516 251.023Z"/>
    <path fill="#46C79B" d="M259.462 193.248C260.253 194.432 260.768 209.407 261.03 212.099C256.155 212.522 251.308 214.672 247.964 218.279C246.425 219.94 245.12 221.826 243.531 223.441C238.021 229.042 231.014 228.993 223.688 229.009C223.1 228.993 222.864 229.092 222.418 228.689C222.418 225.755 222.883 222.797 223.164 219.878C223.536 216.011 223.789 212.093 224.447 208.263C226.873 207.055 229.492 206.088 231.991 205.034L248.349 198.123C252.068 196.558 255.879 195.11 259.462 193.248Z"/>
    <path fill="#34373D" d="M380.308 247.547C384.617 247.422 388.957 247.514 393.269 247.507C392.833 267.37 393.231 287.337 393.229 307.21C388.917 307.307 384.589 307.25 380.275 307.266L380.308 247.547Z"/>
    <path fill="#34373D" d="M184.929 263.087C186.11 262.964 187.376 263.057 188.568 263.07C188.967 266.755 188.718 270.642 188.691 274.351C187.273 274.136 185.874 273.964 184.438 273.948C181.466 273.914 178.49 274.598 176.32 276.75C171.704 281.327 172.678 289.995 172.702 295.951L172.717 307.242L161.093 307.245L161.04 304.665L161.033 264.034C164.777 264.025 168.52 264.036 172.264 264.068L172.245 272.113C173.104 270.992 173.775 269.741 174.644 268.625C177.263 265.26 180.734 263.579 184.929 263.087Z"/>
    <path fill="#46C79B" d="M257.103 161.683L257.431 161.742C258.112 162.52 258.456 174.934 258.539 176.8C255.085 177.977 251.74 179.554 248.389 180.994C241.395 183.999 234.41 187.143 227.321 189.913C226.88 190.131 226.818 190.146 226.328 190.098C226.562 184.871 227.795 179.361 227.449 174.18C237.452 170.437 247.253 165.837 257.103 161.683Z"/>
    <path fill="#46C79B" d="M285.137 80.1967C285.661 80.2583 286.369 80.3662 286.861 80.5643C287.442 80.7987 287.633 80.988 287.844 81.5623C287.076 84.4988 273.816 97.2692 270.658 99.8057C270.589 99.8301 270.523 99.8612 270.452 99.879C269.776 100.049 269.009 99.9379 268.398 99.6223C268.196 99.2734 268.179 99.1226 268.181 98.7136C268.188 97.6866 268.913 96.697 269.516 95.9087C271.099 93.8417 273.21 92.0346 275.051 90.19C278.392 86.8423 281.691 83.4357 285.137 80.1967Z"/>
    <path fill="#46C79B" d="M217.185 147.64C218.022 147.722 218.547 148.06 219.091 148.677C219.219 149.09 219.362 149.498 219.253 149.933C218.748 151.949 203.909 166.438 201.575 167.762C201.181 167.752 200.75 167.635 200.431 167.394C199.884 166.982 199.591 166.52 199.487 165.856C199.967 163.956 214.63 150.051 217.185 147.64Z"/>
    <path fill="#46C79B" d="M269.24 147.617C270.388 147.781 271.254 148.405 272.098 149.154C274.453 151.245 287.599 163.745 287.729 165.833C287.474 166.673 286.87 167.043 286.207 167.552C285.627 167.509 285.493 167.542 285.039 167.193C283.088 165.692 268.197 151.023 268.004 149.621C268.164 148.772 268.699 148.255 269.24 147.617Z"/>
    <path fill="#46C79B" d="M278.742 122.063C281.743 121.958 301.382 121.425 302.643 122.612C303.292 123.223 303.459 123.897 303.462 124.755C303.045 125.418 302.913 125.418 302.217 125.711C297.858 125.785 293.49 125.753 289.13 125.764C285.125 125.774 280.901 126.082 276.97 125.234C277.138 124.577 277.28 123.859 277.527 123.23C277.824 122.477 278.054 122.372 278.742 122.063Z"/>
    <path fill="#46C79B" d="M186.566 122.098C189.74 121.969 206.497 121.58 208.435 122.238C209.276 122.524 209.737 122.874 210.149 123.653C210.179 124.208 210.242 124.418 209.896 124.888C209.447 125.498 208.749 125.636 208.049 125.731L193.267 125.71C190.826 125.729 187.8 126.22 185.453 125.66C184.697 125.48 184.35 125.19 183.932 124.554C183.895 123.861 184.012 123.526 184.33 122.915C184.981 122.3 185.719 122.25 186.566 122.098Z"/>
    <path fill="#46C79B" d="M201.896 80.1842C203.539 81.0809 218.062 95.6894 219.148 97.415C219.399 97.8133 219.398 98.2024 219.27 98.6454C219.033 99.4658 218.238 99.8576 217.541 100.23C214.387 97.9125 202.136 85.9295 199.834 82.8349C199.761 82.4431 199.657 82.2409 199.797 81.8542C200.123 80.9503 201.078 80.531 201.896 80.1842Z"/>
    <path fill="#46C79B" d="M242.886 63.8916C243.479 64.0589 244.118 64.2171 244.618 64.5933C245.225 65.0498 245.334 65.6413 245.404 66.3634C245.699 69.4034 245.849 86.09 245.418 88.6246C245.312 89.2481 244.688 89.8846 244.296 90.3597C243.857 90.3308 243.245 90.2732 242.853 90.0501C242.3 89.7349 242.028 89.236 241.913 88.6285C241.445 86.1583 241.464 68.9132 241.953 65.9674C242.089 65.1447 242.398 64.5574 242.886 63.8916Z"/>
    <path fill="#46C79B" d="M197.364 102.102C199.322 102.16 211.329 107.233 212.562 108.567C212.9 108.933 213.062 109.534 213.033 110.024C212.988 110.763 212.491 111.197 211.979 111.666C209.333 111.575 198.522 106.122 195.92 104.522C196.368 103.701 196.882 102.905 197.364 102.102Z"/>
    <path fill="#46C79B" d="M275.273 136.179C279.299 136.83 287.412 140.776 291.001 142.959C290.7 143.976 290.343 144.983 290.011 145.991C286.585 144.765 276.434 141.064 274.299 138.534C274.252 137.608 274.804 136.938 275.273 136.179Z"/>
    <path fill="#46C79B" d="M261.16 75.6645C261.761 75.7248 262.639 75.9687 263.087 76.3932C263.418 76.7071 263.503 76.9357 263.509 77.3878C263.532 79.3016 259.962 88.2559 258.857 90.2611C258.533 90.8508 258.057 91.3662 257.604 91.8604C256.994 91.7778 256.498 91.5616 256.044 91.1421C255.62 90.7497 255.472 90.2593 255.473 89.6897C255.482 86.8367 259.219 77.6377 261.16 75.6645Z"/>
    <path fill="#46C79B" d="M289.243 104.493C289.488 104.47 289.757 104.435 290.004 104.452C290.64 104.497 291.152 104.756 291.553 105.265C291.994 105.825 291.954 106.119 291.846 106.79C290.044 109.355 281.881 111.497 278.809 112.602C278.698 112.642 278.593 112.706 278.476 112.722C277.885 112.807 277.41 112.517 276.995 112.13C276.482 111.653 276.368 111.437 276.357 110.755C277.582 108.322 286.399 105.619 289.243 104.493Z"/>
    <path fill="#46C79B" d="M225.211 75.9593C225.788 76.0866 226.067 76.0926 226.504 76.545C228.069 78.1655 232.057 88.044 231.867 90.2463C231.795 91.0756 231.345 91.3478 230.78 91.8744C230.22 91.8047 229.65 91.7551 229.215 91.3607C227.61 89.9071 223.922 79.8336 223.75 77.5096C224.024 76.7831 224.617 76.4208 225.211 75.9593Z"/>
    <path fill="#46C79B" d="M209.205 135.556C210.006 135.525 210.525 135.642 211.12 136.166C211.219 136.717 211.29 136.938 211.06 137.472C210.738 138.222 210.001 138.9 209.315 139.32C208.255 139.969 206.653 140.265 205.467 140.712L197.463 143.767C197.056 143.753 196.891 143.709 196.539 143.512C196.041 143.234 195.577 142.876 195.51 142.269C195.464 141.854 195.625 141.435 195.868 141.109C197.162 139.375 206.832 135.976 209.205 135.556Z"/>
    <path fill="#46C79B" d="M186.434 317.42C188.459 316.864 190.549 318.063 191.091 320.092C191.632 322.121 190.418 324.202 188.385 324.729C186.701 325.166 184.936 324.397 184.109 322.866C183.56 321.852 183.504 320.642 183.957 319.582C184.41 318.521 185.322 317.725 186.434 317.42Z"/>
    <path fill="#FEFEFE" d="M187.494 318.361C188.488 318.388 189.386 318.957 189.836 319.843C190.285 320.73 190.213 321.791 189.648 322.608C189.083 323.425 188.116 323.868 187.128 323.761C185.684 323.604 184.62 322.335 184.718 320.885C184.817 319.435 186.042 318.321 187.494 318.361Z"/>
    <path fill="#46C79B" d="M232.807 320.468C232.829 321.695 232.971 322.972 232.46 324.118L232.091 324.463C231.262 323.434 231.304 319.379 231.478 318.001C231.539 317.519 231.585 317.422 231.928 317.114C233.175 317.796 234.921 322.736 235.888 322.59C236.41 321.604 236.528 320.442 237.247 319.605L237.313 319.538C237.54 318.684 237.748 317.994 238.306 317.295C238.484 317.072 238.647 317.136 238.919 317.108C239.505 317.779 239.447 318.059 239.554 318.923C239.539 320.415 239.847 323.861 238.846 325L238.486 324.283L238.531 324.505C238.115 323.068 237.966 321.698 237.855 320.209C237.117 321.987 236.338 323.634 235.364 325.301C234.483 323.705 233.631 322.094 232.807 320.468Z"/>
    <path fill="#46C79B" d="M237.247 319.605L237.313 319.538C237.54 318.684 237.748 317.994 238.306 317.295C238.484 317.072 238.647 317.136 238.919 317.108C239.505 317.779 239.447 318.059 239.554 318.923C239.257 319.526 238.991 319.879 238.492 320.332C238.146 320.411 238.089 320.47 237.741 320.351L237.247 319.605Z"/>
    <path fill="#46C79B" d="M113.095 317.144C114.238 317.227 115.74 317.296 116.792 317.73C117.34 317.957 117.807 318.381 117.996 318.946C118.394 320.135 117.613 321.28 117.079 322.301C117.519 323.071 118.006 323.802 118.194 324.678C117.673 324.698 117.486 324.398 117.092 324.083C116.419 323.315 115.784 322.493 114.788 322.166L114.42 322.436C114.341 323.197 114.265 323.958 114.193 324.72L113.854 324.938L113.321 324.676C112.506 323.165 113.003 318.94 113.095 317.144Z"/>
    <path fill="#FEFEFE" d="M114.491 318.51C114.797 318.487 115.105 318.464 115.412 318.454C116.153 318.431 116.554 318.475 117.09 318.998C117.089 319.788 116.713 320.23 116.278 320.863C115.942 320.991 115.606 321.15 115.24 321.149C114.693 321.149 114.666 321.023 114.306 320.65C114.162 319.835 114.278 319.303 114.491 318.51Z"/>
    <path fill="#46C79B" d="M333.513 317.229C334.899 317.253 336.444 317.226 337.657 318.005C338.188 318.345 338.451 318.812 338.538 319.43C338.692 320.524 337.761 321.518 337.158 322.351C337.769 323.012 338.289 323.612 338.739 324.398L338.613 324.712L338.05 324.69C337.413 323.966 336.349 322.329 335.498 322.037C334.754 322.777 334.817 323.963 334.252 324.84L333.897 324.581C333.059 322.787 333.495 319.259 333.513 317.229Z"/>
    <path fill="#FEFEFE" d="M335.46 318.086C335.663 318.117 335.823 318.13 336.013 318.194C336.768 318.449 337.275 319.179 337.579 319.873C337.535 320.608 337.531 320.552 336.983 321.051C336.485 321.103 335.844 321.232 335.361 321.082C334.888 320.935 334.826 320.707 334.595 320.309C334.666 319.394 334.998 318.853 335.46 318.086Z"/>
    <path fill="#46C79B" d="M210.518 317.23C211.81 317.235 213.328 317.244 214.479 317.89C215.047 318.208 215.372 318.679 215.497 319.312C215.719 320.441 214.806 321.487 214.212 322.373L214.334 322.51C214.806 323.049 215.586 323.799 215.537 324.524L215.037 324.673C214.435 324.014 213.94 323.239 213.305 322.611C212.878 322.188 212.611 321.973 212.008 321.984C211.525 322.713 211.939 323.451 211.663 324.233C211.527 324.621 211.394 324.641 211.048 324.782C210.127 323.774 210.519 318.758 210.518 317.23Z"/>
    <path fill="#FEFEFE" d="M212.449 318.093C212.654 318.122 212.817 318.133 213.01 318.196C213.769 318.443 214.278 319.179 214.587 319.87C214.538 320.608 214.541 320.55 213.985 321.045C213.486 321.099 212.844 321.231 212.359 321.085C211.883 320.941 211.82 320.709 211.584 320.309C211.655 319.395 211.985 318.858 212.449 318.093Z"/>
    <path fill="#46C79B" d="M128.409 317.085C128.57 317.125 128.654 317.134 128.806 317.23C130.282 318.154 132.048 323.612 132.666 325.485C131.598 324.389 130.884 323.42 129.312 323.218C128.397 323.204 127.198 322.985 126.399 323.423C126.43 323.822 126.449 324.222 126.456 324.622C125.953 324.887 125.932 324.888 125.37 324.8L125.205 324.378C125.441 323.77 125.664 323.15 125.967 322.572C126.882 320.825 127.198 318.632 128.409 317.085Z"/>
    <path fill="#FEFEFE" d="M128.202 319.077C128.443 319.216 128.61 319.355 128.783 319.574C129.315 320.245 129.938 321.11 129.845 322L129.281 322.258C128.598 322.274 128.023 322.317 127.382 322.056L127.27 321.596C127.718 320.835 127.976 320.201 128.153 319.332C128.17 319.247 128.186 319.162 128.202 319.077Z"/>
    <path fill="#46C79B" d="M359.593 316.864C361.005 317.726 362.846 323.645 363.723 325.489C362.457 324.404 361.863 323.241 360.02 323.206C359.441 323.194 358.807 323.142 358.232 323.204C357.358 323.298 357.1 323.958 356.624 324.607L356.408 324.558L356.485 324.804L356.327 324.895L356.24 324.744C356.362 322.414 358.228 318.756 359.593 316.864Z"/>
    <path fill="#46C79B" d="M249.426 317.082C249.528 317.122 249.636 317.148 249.732 317.201C251.221 318.017 253.052 323.628 253.649 325.463C253.071 324.885 252.493 324.268 251.866 323.745C251.276 323.254 250.81 323.192 250.061 323.242C249.278 323.185 248.227 322.952 247.517 323.281C247.431 323.9 247.445 324.581 246.97 325.036L246.498 324.92L246.359 324.618C246.82 322.662 248.278 318.67 249.426 317.082Z"/>
    <path fill="#FEFEFE" d="M249.397 319.149C249.825 319.375 250.084 319.713 250.356 320.104C250.766 320.696 250.941 321.187 250.803 321.907L250.177 322.241C249.551 322.256 249.007 322.305 248.418 322.047L248.287 321.615C248.754 320.808 249.078 320.022 249.397 319.149Z"/>
    <path fill="#46C79B" d="M302.53 322.649C302.493 321.418 302.059 318.495 302.548 317.462C302.712 317.117 302.84 317.174 303.182 317.06L303.594 317.462C304.084 319.831 303.77 322.379 303.639 324.781C303.517 324.779 303.394 324.786 303.272 324.773C302.03 324.645 299.402 320.276 298.627 319.179C298.516 320.612 299.005 322.929 298.6 324.188C298.46 324.624 298.298 324.642 297.915 324.8C296.98 323.704 297.464 318.544 297.491 316.924C299.51 317.743 300.966 321.081 302.53 322.649Z"/>
    <path fill="#46C79B" d="M322.285 317.281C323.532 317.229 325.778 316.902 326.755 317.636L326.785 318.067C326.029 318.606 324.845 318.457 323.958 318.724C323.487 318.866 323.399 318.895 323.179 319.308C323.861 320.964 324.993 319.912 326.068 320.828C325.558 321.876 324.252 321.482 323.397 322.026C323.303 322.086 323.213 322.151 323.121 322.213C323.302 322.584 323.512 322.943 323.711 323.305C324.589 323.92 325.673 323.74 326.679 324.022L326.75 324.353C325.787 325.202 323.515 324.799 322.266 324.729C322.17 322.238 322.129 319.77 322.285 317.281Z"/>
    <path fill="#46C79B" d="M198.446 316.843C200.077 317.576 198.816 322.041 200.042 323.808C200.585 324.026 200.99 324.142 201.554 323.846C203.184 322.989 201.837 318.782 202.56 317.232C203.171 317.27 203.163 317.37 203.6 317.815C203.669 319.372 203.835 321.456 203.325 322.934C203.031 323.788 202.523 324.696 201.633 325.042C201.164 325.224 200.62 325.157 200.175 324.941C199.118 324.429 198.476 323.448 198.126 322.358C197.641 320.845 197.728 318.248 198.446 316.843Z"/>
    <path fill="#46C79B" d="M382.747 317.255C383.596 317.25 384.445 317.252 385.294 317.263C385.982 317.277 386.816 317.222 387.305 317.732L387.18 318.152C386.189 318.698 385.175 318.199 384.188 318.652C383.846 319.273 383.871 319.304 383.975 320.012C384.601 320.642 385.559 320.478 386.418 320.76L386.526 321.133C385.203 321.49 384.387 321.512 383.532 322.642C384.985 324.635 386.674 323.218 387.723 324.342L387.449 324.614C385.952 324.937 384.284 324.77 382.755 324.737L382.747 317.255Z"/>
    <path fill="#46C79B" d="M372.332 317.234C373.137 317.202 374.135 317.298 374.92 317.48C375.63 317.644 375.754 317.84 376.145 318.44C375.084 318.908 373.475 318.42 372.247 318.816C371.423 319.082 371.146 319.407 370.738 320.137C370.667 321.193 371.194 322.401 371.919 323.17C372.461 323.747 373.252 323.782 373.992 323.845C374.538 323.691 374.942 323.626 375.509 323.628L375.739 323.925L375.368 324.364C373.839 325.031 372.992 324.879 371.464 324.422C370.837 323.565 370.255 322.679 369.667 321.794C369.752 321.227 369.83 320.65 369.954 320.09C370.301 318.524 371.049 318.036 372.332 317.234Z"/>
    <path fill="#46C79B" d="M310.242 317.307C311.558 317.12 313.048 317.075 314.369 317.182C315.045 317.237 315.164 317.363 315.572 317.891C315.285 318.454 314.265 318.626 313.735 319.133C313.33 320.576 313.507 322.314 313.511 323.812C313.545 324.119 313.557 324.248 313.416 324.536C313.264 324.848 313.095 324.796 312.784 324.884C311.213 323.562 312.94 320.218 311.675 318.627L310.264 318.469L310.032 318.116L310.242 317.307Z"/>
    <path fill="#46C79B" d="M345.729 317.258C346.92 317.226 349.016 317.017 350.087 317.561C349.364 317.825 348.567 318.063 347.883 318.412C347.261 318.729 347.087 318.948 346.848 319.59C347.151 320.185 347.16 320.234 347.749 320.538C348.272 320.42 348.851 320.221 349.381 320.367C349.739 320.465 349.764 320.863 349.892 321.176C349.132 321.477 348.36 321.405 347.593 321.628C346.674 321.896 347.127 323.966 346.591 324.914L346.112 324.975C345.292 323.788 345.73 318.905 345.729 317.258Z"/>
    <path fill="#46C79B" d="M139.092 317.203C140.431 317.188 142.261 316.994 143.433 317.71L143.438 318.005C142.525 318.123 140.839 318.177 140.179 318.812C139.889 319.091 139.96 319.167 139.929 319.541C140.251 320.11 140.321 320.292 140.894 320.642L142.076 320.346C142.761 320.664 142.706 320.781 142.984 321.453C142.139 321.49 141.374 321.422 140.684 321.975C140.111 322.867 140.075 323.79 139.972 324.814L139.597 324.847C138.466 323.598 139.028 318.942 139.092 317.203Z"/>
    <path fill="#46C79B" d="M102.974 317.264C103.574 317.238 104.408 317.151 104.982 317.333C105.514 317.501 105.724 317.852 105.975 318.308C105.228 319.063 102.995 318.182 101.808 318.921C101.33 319.219 101.039 319.672 101.012 320.237C100.974 321.014 101.51 322.7 102.1 323.234C102.94 323.992 104.147 323.833 105.196 323.812L105.539 323.532L105.812 323.748L105.607 324.311C105.294 324.525 105.016 324.724 104.639 324.809C103.188 325.138 101.936 324.176 100.743 323.486C100.313 322.427 99.9372 321.431 100.224 320.279C100.585 318.834 101.757 317.979 102.974 317.264Z"/>
    <path fill="#46C79B" d="M149.964 317.297C151.586 317.255 153.529 316.996 155.096 317.407L155.255 317.734C154.665 318.381 154.037 318.6 153.242 318.914C153.276 320.379 153.258 321.847 153.261 323.312C153.256 323.99 153.308 324.274 152.968 324.873L152.52 324.796C151.495 323.742 152.162 321.041 152.069 319.631C152.031 319.061 152.021 318.82 151.604 318.445C151.165 318.47 150.724 318.541 150.321 318.329C150.022 318.172 150.026 317.614 149.964 317.297Z"/>
    <path fill="#46C79B" d="M173.923 320.522C174.542 319.473 174.958 318.348 175.964 317.6C176.211 317.416 176.088 317.481 176.483 317.532C176.365 318.58 175.668 319.269 175.05 320.089C174.266 321.62 174.569 323.484 173.679 324.868C173.038 324.109 173.039 322.129 172.66 321.071C172.167 319.699 171.221 318.571 170.717 317.182C172.092 317.513 173.148 319.447 173.923 320.522Z"/>
    <path fill="#46C79B" d="M265.586 323.694C264.873 324.298 263.881 324.819 262.933 324.865C262.276 324.897 261.672 324.651 261.22 324.174C259.722 322.59 259.94 319.748 260.062 317.74C260.396 317.25 260.377 317.206 260.939 317.047C262.206 318.6 260.442 321.251 261.616 323.136C262.231 323.62 262.62 323.706 263.391 323.792C264.119 323.544 264.188 323.294 264.628 322.684L265.586 323.694Z"/>
    <path fill="#46C79B" d="M289.2 317.067C289.56 317.156 289.852 317.277 290.191 317.424C291.002 318.989 290.804 323.304 290.293 325C290.026 324.903 289.752 324.732 289.503 324.602C288.546 322.52 289.031 319.302 289.2 317.067Z"/>
    <path fill="#46C79B" d="M272.42 316.872C272.914 316.96 273.136 317.07 273.527 317.384C274.41 319.525 273.869 322.626 273.739 324.898C273.429 324.817 273.019 324.805 272.814 324.534C271.886 323.305 272.399 318.518 272.42 316.872Z"/>
    <path fill="#46C79B" d="M264.628 322.684C264.426 321.073 264.143 319.008 264.542 317.438L264.867 317.088C265.329 317.24 265.531 317.234 265.742 317.717C266.485 319.424 265.23 321.899 265.586 323.694L264.628 322.684Z"/>
</svg>
